<svg width="472" height="105" viewBox="0 0 472 105" fill="none" xmlns="http://www.w3.org/2000/svg">
<path fill-rule="evenodd" clip-rule="evenodd" d="M97.1689 0.000488281V31.2791L53.0712 13.3324L97.1689 0.000488281ZM97.1689 76.4025V104.861L0 64.8652V37.1759L97.1689 76.4025Z" fill="#888"/>
<path fill-rule="evenodd" clip-rule="evenodd" d="M0.000991821 104.86V73.5817L43.8424 91.7848L0.000991821 104.86ZM0.000991821 28.4584V-6.10352e-05L97.1699 39.9956V67.6849L0.000991821 28.4584Z" fill="#888"/>
<path fill-rule="evenodd" clip-rule="evenodd" d="M356.505 24.0771V34.8222L351.011 34.831C331.667 34.8616 321.589 45.3377 321.524 65.4843C321.488 76.6851 323.059 81.9429 328.042 87.2961C334.66 94.4058 347.288 94.3996 354.716 87.283L357.016 85.0796V88.0577V91.0367H364.684H372.353L372.223 52.3255L372.091 13.6142L364.298 13.4731L356.505 13.332V24.0771ZM390.968 13.3583L391 27.9229L400.07 28.0631L409.142 28.2025V20.7808V13.3583H400.183H390.968ZM130.01 20.787C129.846 20.9509 130.507 23.3129 131.479 26.0368C132.45 28.7608 133.825 32.8292 134.535 35.0781C135.245 37.3262 136.172 40.0861 136.595 41.2105C137.018 42.3341 138.017 45.2088 138.815 47.598C139.613 49.9872 140.88 53.6673 141.632 55.7751C142.383 57.883 143.297 60.6429 143.664 61.9075C144.031 63.1722 145.866 68.5763 147.741 73.9165C149.617 79.2575 151.451 84.6616 151.817 85.9262C152.182 87.1909 152.733 88.8588 153.04 89.6309L153.596 91.0367H163.268H172.939L174.254 87.0761C174.977 84.8982 178.69 73.9165 182.506 62.6736C192.071 34.49 196.549 21.1358 196.549 20.7984C196.549 20.6415 192.807 20.5135 188.234 20.5135H179.918L178.21 26.007C177.27 29.0281 176.191 32.5356 175.812 33.8003C175.432 35.065 174.325 38.6294 173.351 41.7215C170.967 49.286 167.297 61.1056 165.537 66.8892C163.666 73.0339 164.142 73.53 160.5 61.6516C157.611 52.2343 155.422 45.2456 154.416 42.2325C153.759 40.2649 152.711 36.93 152.087 34.8222C150.03 27.8721 149.428 25.9071 148.562 23.3243L147.706 20.7686L139.007 20.6292C134.222 20.553 130.173 20.624 130.01 20.787ZM215.15 35.788C194.53 41.6908 189.644 75.8157 207.702 87.8027C216.044 93.3391 231.861 94.227 241.853 89.7195C242.739 89.3198 243.688 88.9929 243.963 88.9929C245.308 88.9929 245.675 87.5354 245.081 84.5573C244.754 82.921 244.27 80.4327 244.005 79.0269C243.738 77.622 243.424 76.1873 243.306 75.8394C243.15 75.3827 241.914 75.6536 238.856 76.8175C227.277 81.2207 215.064 77.9533 213.208 69.9567L212.882 68.5509H230.779H248.675V65.3432C248.675 42.2316 234.94 30.1219 215.15 35.788ZM284.959 35.7565C281.222 37.1474 279.729 38.143 276.903 41.1299L274.227 43.9599V40.1439V36.3288L266.434 36.4699L258.64 36.611L258.508 63.8234L258.376 91.0367H266.557H274.738V74.8157V58.5946L276.534 55.9864C281.968 48.0967 290.145 46.2701 294.07 52.0458C294.07 52.0458 294.568 52.7283 294.839 53.5841C295.127 54.491 295.18 56.4043 295.18 56.4043V72.5028V91.0367H303.101H311.022V70.4195C311.022 47.7321 310.883 46.5699 307.607 41.8416C303.43 35.8143 292.616 32.909 284.959 35.7565ZM442.87 35.8091C433.691 38.2806 428.723 43.0335 424.562 53.329C421.661 60.5026 423.225 77.5493 427.405 84.3294C433.853 94.7896 447.996 95.5442 455.668 85.8377L457.611 83.3802L457.322 87.2085L457.032 91.0367H464.516H471.999V64.2687V37.5015L470.595 36.9668C465.053 34.8608 448.898 34.1859 442.87 35.8091ZM382.568 42.9993V49.6427H387.678H392.788V63.422V77.2013L387.806 77.3477L382.823 77.4941L382.68 84.2654L382.538 91.0367H400.184H417.83V84.1374V77.239H413.23H408.631V56.7971V36.3551H395.599H382.568V42.9993ZM228.876 49.0546C230.504 50.0608 232.329 52.7102 233.064 55.1362L233.413 56.2861H222.799C214.545 56.2861 212.323 56.1494 212.8 55.6726C213.138 55.3352 213.414 54.6568 213.414 54.1651C213.414 49.4525 223.907 45.9836 228.876 49.0546ZM355.194 49.1186L356.505 49.6173V58.968V68.3187L354.675 71.118C349.835 78.5204 344.937 80.6992 340.969 77.2145C335.848 72.7184 335.834 58.3326 340.944 52.2589C343.594 49.1107 350.924 47.4955 355.194 49.1186ZM455.519 48.9425C456.655 49.2466 456.669 49.3544 456.669 58.1117V66.9725L455.085 69.678C446.842 83.7606 438.422 81.0997 438.577 64.4624C438.69 52.3798 445.401 46.2308 455.519 48.9425Z" fill="#888"/>
</svg>
