<svg width="167" height="23" viewBox="0 0 167 23" fill="none" xmlns="http://www.w3.org/2000/svg">
    <path fill-rule="evenodd" clip-rule="evenodd" d="M43.0825 0.590393V7.11321L33.8864 3.37061L43.0825 0.590393ZM43.0825 16.5232V22.4579L22.819 14.1172V8.34292L43.0825 16.5232Z" fill="white"/>
    <path fill-rule="evenodd" clip-rule="evenodd" d="M22.8193 22.4571V15.9342L31.9619 19.7303L22.8193 22.4571ZM22.8193 6.52428V0.589584L43.0828 8.93024V14.7045L22.8193 6.52428Z" fill="white"/>
    <path fill-rule="evenodd" clip-rule="evenodd" d="M112.305 3.65608V6.57889L110.811 6.58127C105.549 6.58962 102.808 9.43924 102.79 14.9194C102.78 17.9662 103.208 19.3963 104.563 20.8525C106.363 22.7864 109.798 22.7847 111.819 20.8489L112.444 20.2496V21.0597V21.87H114.53H116.616L116.581 11.34L116.545 0.810042L114.425 0.771659L112.305 0.733276V3.65608ZM121.68 0.740428L121.688 4.70219L124.156 4.74033L126.623 4.77824V2.75945V0.740428H124.186H121.68ZM50.6958 2.76112C50.6512 2.8057 50.8309 3.4482 51.0953 4.18915C51.3595 4.9301 51.7335 6.03676 51.9266 6.6485C52.1197 7.26 52.3717 8.01073 52.4869 8.3166C52.602 8.62223 52.8738 9.40419 53.0907 10.0541C53.3077 10.704 53.6524 11.705 53.857 12.2784C54.0613 12.8517 54.3099 13.6024 54.4098 13.9465C54.5095 14.2905 55.0087 15.7605 55.5189 17.213C56.029 18.6659 56.5278 20.1359 56.6274 20.4799C56.7268 20.8239 56.8766 21.2776 56.96 21.4876L57.1114 21.87H59.7422H62.3729L62.7305 20.7927C62.9272 20.2002 63.9373 17.213 64.9753 14.1548C67.577 6.48854 68.7952 2.85601 68.7952 2.76422C68.7952 2.72155 67.7772 2.68674 66.5333 2.68674H64.2713L63.8067 4.18104C63.5511 5.00282 63.2576 5.9569 63.1544 6.30091C63.0512 6.64493 62.7498 7.61451 62.485 8.45559C61.8365 10.5132 60.8383 13.7283 60.3594 15.3015C59.8506 16.973 59.9801 17.1079 58.9893 13.8769C58.2035 11.3152 57.608 9.4142 57.3343 8.59458C57.1557 8.05937 56.8706 7.15225 56.7009 6.57889C56.1413 4.68836 55.9775 4.15387 55.742 3.4513L55.5093 2.75612L53.1429 2.71821C51.8415 2.69747 50.7401 2.71678 50.6958 2.76112ZM73.8548 6.84161C68.2459 8.44725 66.9169 17.7297 71.8289 20.9903C74.098 22.4963 78.4004 22.7378 81.1185 21.5117C81.3595 21.403 81.6177 21.314 81.6923 21.314C82.0582 21.314 82.1581 20.9176 81.9965 20.1075C81.9076 19.6624 81.776 18.9856 81.7037 18.6032C81.6313 18.221 81.5459 17.8307 81.5137 17.7361C81.4713 17.6119 81.1351 17.6856 80.3031 18.0022C77.1536 19.1999 73.8315 18.3111 73.3268 16.1359L73.2381 15.7535H78.1062H82.9742V14.881C82.9742 8.59434 79.2379 5.30034 73.8548 6.84161ZM92.8438 6.83303C91.8272 7.21137 91.4212 7.4822 90.6526 8.29467L89.9245 9.06447V8.02647V6.9887L87.8047 7.02709L85.6848 7.06547L85.6488 14.4676L85.6128 21.87H87.8383H90.0635V17.4576V13.0453L90.5523 12.3358C92.0303 10.1897 94.2546 9.69286 95.3222 11.2639C95.3222 11.2639 95.4575 11.4496 95.5314 11.6824C95.6097 11.9291 95.624 12.4495 95.624 12.4495V16.8285V21.87H97.7787H99.9334V16.2618C99.9334 10.0906 99.8955 9.77443 99.0043 8.48825C97.8681 6.84876 94.9267 6.05846 92.8438 6.83303ZM135.798 6.84733C133.301 7.51962 131.95 8.81248 130.818 11.613C130.029 13.5643 130.454 18.2012 131.591 20.0455C133.345 22.8908 137.192 23.0961 139.279 20.4558L139.808 19.7873L139.729 20.8286L139.65 21.87H141.686H143.721V14.5887V7.30768L143.339 7.16226C141.832 6.58938 137.438 6.40581 135.798 6.84733ZM119.395 8.80318V10.6103H120.785H122.175V14.3584V18.1066L120.82 18.1464L119.464 18.1862L119.425 20.0281L119.387 21.87H124.186H128.986V19.9933V18.1168H127.735H126.484V12.5563V6.99586H122.939H119.395V8.80318ZM77.5884 10.4503C78.0314 10.724 78.5277 11.4447 78.7278 12.1046L78.8226 12.4174H75.9356C73.6903 12.4174 73.086 12.3802 73.2157 12.2505C73.3075 12.1587 73.3826 11.9742 73.3826 11.8404C73.3826 10.5585 76.2369 9.61494 77.5884 10.4503ZM111.949 10.4677L112.305 10.6034V13.1469V15.6904L111.807 16.4518C110.491 18.4654 109.159 19.058 108.079 18.1102C106.686 16.8871 106.683 12.974 108.073 11.3219C108.793 10.4656 110.787 10.0262 111.949 10.4677ZM139.238 10.4198C139.547 10.5025 139.551 10.5318 139.551 12.9139V15.3242L139.12 16.0601C136.878 19.8908 134.588 19.167 134.63 14.6414C134.661 11.3548 136.486 9.68217 139.238 10.4198Z" fill="white"/>
</svg>
